<svg xmlns="http://www.w3.org/2000/svg" width="1200" height="630" viewBox="0 0 1200 630">
  <rect width="1200" height="630" fill="#ffffff"/>
  <g font-family="Arial, Helvetica, sans-serif" fill="#1b1b1b">
    <rect x="0" y="0" width="1200" height="72" fill="#ffffff"/>
    <text x="-20" y="42" font-size="18" font-weight="700" letter-spacing="2">在噪音中維持身份 Maintaining Identity in Noise</text>
    <text x="570" y="42" font-size="18" font-weight="700" letter-spacing="2">A Dual-Axis Dialogue between Photovoltaic PUF and Philosophy of Mind</text>
    <line x1="0" y1="72" x2="1200" y2="72" stroke="#1b1b1b" stroke-width="1"/>

    <rect x="25" y="92" width="1150" height="465" rx="10" fill="#fbfbf8" stroke="#d8d8d8"/>
    <text x="43" y="134" font-size="16" font-weight="700" fill="#666666" letter-spacing="4">PUBLIC RESEARCH PROTOTYPE</text>
    <text x="43" y="216" font-size="70" font-weight="900" letter-spacing="-5">Solar Oracle Walkman</text>

    <g transform="translate(1087 110)" stroke="#1b1b1b" stroke-width="2" stroke-linecap="round" fill="#1b1b1b">
      <circle cx="16" cy="16" r="5"/>
      <path d="M16 1v7M16 24v7M1 16h7M24 16h7M5 5l5 5M22 22l5 5M27 5l-5 5M10 22l-5 5" fill="none"/>
      <rect x="52" y="7" width="7" height="18"/>
      <rect x="64" y="7" width="7" height="18"/>
      <rect x="76" y="7" width="7" height="18"/>
      <rect x="88" y="7" width="7" height="18"/>
    </g>

    <rect x="43" y="238" width="560" height="60" rx="6" fill="#111111"/>
    <text x="160" y="276" font-size="22" font-weight="800" fill="#ffffff" letter-spacing="4">MIND PHILOSOPHY 心智哲學</text>
    <rect x="612" y="238" width="545" height="60" rx="6" fill="#ffffff" stroke="#d8d8d8"/>
    <text x="710" y="276" font-size="22" font-weight="800" letter-spacing="4">INNOVATIVE STARTUP 研發新創</text>

    <rect x="43" y="312" width="1114" height="295" rx="6" fill="#ffffff" stroke="#d8d8d8"/>
    <text x="58" y="352" font-size="22">Agent: Pick a channel, then ask one short question.</text>
    <rect x="1142" y="313" width="15" height="293" rx="6" fill="#eeeeee"/>
    <rect x="1147" y="474" width="6" height="112" rx="3" fill="#1b1b1b"/>

    <rect x="43" y="620" width="360" height="58" rx="8" fill="#ffffff" stroke="#1b1b1b" stroke-width="2"/>
    <text x="183" y="657" font-size="22" font-weight="800" letter-spacing="4">ORACLE</text>
    <rect x="414" y="620" width="360" height="58" rx="8" fill="#ffffff" stroke="#d8d8d8"/>
    <text x="573" y="657" font-size="22" font-weight="800" letter-spacing="4">PIX</text>
    <rect x="786" y="620" width="360" height="58" rx="8" fill="#ffffff" stroke="#d8d8d8"/>
    <text x="936" y="657" font-size="22" font-weight="800" letter-spacing="4">REELS</text>
  </g>
</svg>
